<?xml version="1.0" encoding="utf-8"?>
<!-- Generator: Adobe Illustrator 19.0.0, SVG Export Plug-In . SVG Version: 6.00 Build 0)  -->
<svg version="1.1" id="Layer_2" xmlns="http://www.w3.org/2000/svg" xmlns:xlink="http://www.w3.org/1999/xlink" x="0px" y="0px"
	 viewBox="0 0 540.7 419.9" style="enable-background:new 0 0 540.7 419.9;" xml:space="preserve">
<style type="text/css">
	.st0{fill:#007FC6;}
	.st1{fill:#7AC043;}
</style>
<path class="st0" d="M415.5,333.9c7.3,8.5,13.5,16.9,18.8,25.4c172.2-50.6,118-272.9-41.5-264.4C319.2-68.9,97.2-2.6,102,153.1
	c-47.3-1-102,42.5-102,101.8c0,76.8,66,107,106,107s149.8,0,149.8,0c-7.2-9.3-13.6-18.4-18.8-27.1c0,0-88.9,0-129.1,0
	c-62,0-80.5-52.8-80.5-77.4c0-26.5,21.3-90.3,106.8-74.3c-22-77.9,40.8-147.7,99.3-153.9s121,23,139.5,95.8
	C524,93.1,573.9,306.9,415.5,333.9z"/>
<g>
	<path class="st1" d="M449.1,236.7c-2.8,0-5.3-2-5.8-4.9c-3.9-23.5-19.9-37.7-43.9-38.9c-3.2-0.2-5.7-2.9-5.5-6.2
		c0.2-3.2,2.9-5.7,6.2-5.5c29.5,1.6,50,19.8,54.8,48.7c0.5,3.2-1.6,6.2-4.8,6.7C449.7,236.7,449.4,236.7,449.1,236.7z"/>
</g>
<g>
	<path class="st1" d="M478.8,236.7c-3.2,0-5.8-2.6-5.8-5.8c0-22-11.2-37.3-20.7-46.3c-14.6-13.9-35.2-22.4-52.3-21.6
		c-3.2,0.2-6-2.3-6.1-5.6s2.3-6,5.6-6.1c20.2-1,44.1,8.8,61,24.8c11.1,10.6,24.3,28.6,24.3,54.7
		C484.7,234.1,482.1,236.7,478.8,236.7z"/>
</g>
<path class="st1" d="M286.7,138c-9.4-19.6-24.7-35.4-42.3-26.1s-24.1,13.1-27,14.6s-16.1,13.4-15,43.2c1.2,29.8,7.7,73,30.5,114.5
	s45.7,79.3,81.3,107.3c35.6,27.9,55.4,29.6,63,26.1s24.8-13,31-17.7c6.3-4.7,14.8-17.3,8.1-31.3c-6.7-14-14.9-26.3-26.7-35.4
	c-11.8-9.2-22.2-11.2-33.1-4c-10.9,7.2-21.6,14.8-34.3,1.6c-12.7-13.3-40.6-59.3-52.7-84.3c-12.1-25-12.4-41.7-4.4-46.5
	c8-4.8,26.4-13.8,28.8-24.4C296.5,165,289.1,143,286.7,138z"/>
</svg>
